<?xml version="1.0" encoding="UTF-8" standalone="no"?>
<!-- Created with Inkscape (http://www.inkscape.org/) -->

<svg
   xmlns:dc="http://purl.org/dc/elements/1.1/"
   xmlns:cc="http://creativecommons.org/ns#"
   xmlns:rdf="http://www.w3.org/1999/02/22-rdf-syntax-ns#"
   xmlns:svg="http://www.w3.org/2000/svg"
   xmlns="http://www.w3.org/2000/svg"
   xmlns:sodipodi="http://sodipodi.sourceforge.net/DTD/sodipodi-0.dtd"
   xmlns:inkscape="http://www.inkscape.org/namespaces/inkscape"
   width="428.41742"
   height="389.71713"
   id="svg2"
   version="1.1"
   inkscape:version="0.48.4 r9939"
   sodipodi:docname="drawing_ringbuffer_1_path.svg">
  <defs
     id="defs4">
    <marker
       inkscape:stockid="Arrow1Mend"
       orient="auto"
       refY="0"
       refX="0"
       id="Arrow1Mend"
       style="overflow:visible">
      <path
         id="path3925"
         d="M 0,0 5,-5 -12.5,0 5,5 0,0 z"
         style="fill-rule:evenodd;stroke:#000000;stroke-width:1pt"
         transform="matrix(-0.4,0,0,-0.4,-4,0)"
         inkscape:connector-curvature="0" />
    </marker>
    <marker
       inkscape:stockid="Arrow1Lend"
       orient="auto"
       refY="0"
       refX="0"
       id="Arrow1Lend"
       style="overflow:visible">
      <path
         id="path3919"
         d="M 0,0 5,-5 -12.5,0 5,5 0,0 z"
         style="fill-rule:evenodd;stroke:#000000;stroke-width:1pt"
         transform="matrix(-0.8,0,0,-0.8,-10,0)"
         inkscape:connector-curvature="0" />
    </marker>
    <marker
       inkscape:stockid="Arrow1Mend"
       orient="auto"
       refY="0"
       refX="0"
       id="Arrow1Mend-4"
       style="overflow:visible">
      <path
         inkscape:connector-curvature="0"
         id="path3925-7"
         d="M 0,0 5,-5 -12.5,0 5,5 0,0 z"
         style="fill-rule:evenodd;stroke:#000000;stroke-width:1pt"
         transform="matrix(-0.4,0,0,-0.4,-4,0)" />
    </marker>
  </defs>
  <sodipodi:namedview
     id="base"
     pagecolor="#ffffff"
     bordercolor="#666666"
     borderopacity="1.0"
     inkscape:pageopacity="0.0"
     inkscape:pageshadow="2"
     inkscape:zoom="0.76149961"
     inkscape:cx="294.74284"
     inkscape:cy="66.70569"
     inkscape:document-units="px"
     inkscape:current-layer="layer1"
     showgrid="false"
     inkscape:window-width="1314"
     inkscape:window-height="843"
     inkscape:window-x="319"
     inkscape:window-y="193"
     inkscape:window-maximized="0"
     fit-margin-left="0.1"
     fit-margin-top="0.1"
     fit-margin-right="0.1"
     fit-margin-bottom="0.1" />
  <metadata
     id="metadata7">
    <rdf:RDF>
      <cc:Work
         rdf:about="">
        <dc:format>image/svg+xml</dc:format>
        <dc:type
           rdf:resource="http://purl.org/dc/dcmitype/StillImage" />
        <dc:title />
      </cc:Work>
    </rdf:RDF>
  </metadata>
  <g
     inkscape:label="Layer 1"
     inkscape:groupmode="layer"
     id="layer1"
     transform="translate(-87.180286,-57.307723)">
    <path
       style="fill:#ffffff;fill-opacity:1;fill-rule:nonzero;stroke:#00ff00;stroke-width:21.0375042;stroke-linecap:round;stroke-linejoin:round;stroke-miterlimit:4;stroke-opacity:1;stroke-dashoffset:0"
       d="m 219.8586,87.022969 c 91.68303,-45.215284 202.66108,-7.545765 247.8764,84.137291 25.73031,52.17332 25.43596,113.40767 -0.79471,165.33122 L 301.72816,253.02982 z"
       id="path4601-6"
       inkscape:connector-curvature="0" />
    <path
       style="fill:#ffffff;fill-opacity:1;fill-rule:nonzero;stroke:#ff0000;stroke-width:21.0375042;stroke-linecap:round;stroke-linejoin:round;stroke-miterlimit:4;stroke-opacity:1;stroke-dashoffset:0"
       d="M 455.1165,357.4753 C 396.50406,441.22961 281.09299,461.61111 197.33867,402.99864 113.58437,344.3862 93.202869,228.97513 151.81533,145.22082 c 12.88684,-18.41465 29.0198,-34.32829 47.60914,-46.961838 L 303.46592,251.34806 z"
       id="path4601"
       inkscape:connector-curvature="0" />
    <path
       style="fill:#ffffff;fill-opacity:1;fill-rule:nonzero;stroke:#000000;stroke-width:1.96383965;stroke-linecap:round;stroke-linejoin:round;stroke-miterlimit:4;stroke-opacity:1;stroke-dashoffset:0"
       d="m 472.58413,252.23055 c 0,93.47288 -75.77475,169.24763 -169.24764,169.24763 -93.47288,0 -169.24763,-75.77475 -169.24763,-169.24763 0,-93.47289 75.77475,-169.247634 169.24763,-169.247634 93.47289,0 169.24764,75.774744 169.24764,169.247634 z"
       id="path2985"
       inkscape:connector-curvature="0" />
    <path
       style="fill:none;stroke:#000000;stroke-width:1.96383965;stroke-linecap:butt;stroke-linejoin:miter;stroke-miterlimit:4;stroke-opacity:1;stroke-dasharray:none"
       d="m 133.05052,252.23055 339.5336,0"
       id="path3005"
       inkscape:connector-curvature="0" />
    <path
       style="fill:none;stroke:#000000;stroke-width:1.96383965;stroke-linecap:butt;stroke-linejoin:miter;stroke-miterlimit:4;stroke-opacity:1;stroke-dasharray:none"
       d="M 155.85823,335.36664 449.90296,165.59984"
       id="path3005-5"
       inkscape:connector-curvature="0" />
    <path
       style="fill:none;stroke:#000000;stroke-width:1.96383965;stroke-linecap:butt;stroke-linejoin:miter;stroke-miterlimit:4;stroke-opacity:1;stroke-dasharray:none"
       d="M 449.06743,339.1906 155.0227,169.4238"
       id="path3005-5-0"
       inkscape:connector-curvature="0" />
    <path
       style="fill:none;stroke:#000000;stroke-width:1.96383965;stroke-linecap:butt;stroke-linejoin:miter;stroke-miterlimit:4;stroke-opacity:1;stroke-dasharray:none"
       d="M 214.75566,397.3028 384.52247,103.25809"
       id="path3005-5-03"
       inkscape:connector-curvature="0" />
    <path
       style="fill:none;stroke:#000000;stroke-width:1.96383965;stroke-linecap:butt;stroke-linejoin:miter;stroke-miterlimit:4;stroke-opacity:1;stroke-dasharray:none"
       d="M 384.06657,401.32957 214.29977,107.28485"
       id="path3005-5-03-8"
       inkscape:connector-curvature="0" />
    <path
       style="fill:none;stroke:#000000;stroke-width:1.96383965;stroke-linecap:butt;stroke-linejoin:miter;stroke-miterlimit:4;stroke-opacity:1;stroke-dasharray:none"
       d="m 299.68875,422.50294 0,-339.533606"
       id="path3005-3"
       inkscape:connector-curvature="0" />
    <path
       style="fill:#ffffff;fill-opacity:1;fill-rule:nonzero;stroke:#000000;stroke-width:1.96383965;stroke-linecap:round;stroke-linejoin:round;stroke-miterlimit:4;stroke-opacity:1;stroke-dashoffset:0"
       d="m 433.64273,252.23055 c 0,71.96615 -58.34009,130.30624 -130.30624,130.30624 -71.96614,0 -130.30623,-58.34009 -130.30623,-130.30624 0,-71.96615 58.34009,-130.30624 130.30623,-130.30624 71.96615,0 130.30624,58.34009 130.30624,130.30624 z"
       id="path2985-5"
       inkscape:connector-curvature="0" />
    <flowRoot
       xml:space="preserve"
       id="flowRoot3902"
       style="font-size:40px;font-style:normal;font-weight:normal;line-height:125%;letter-spacing:0px;word-spacing:0px;fill:#000000;fill-opacity:1;stroke:none;font-family:Sans"><flowRegion
         id="flowRegion3904"><rect
           id="rect3906"
           width="73.867401"
           height="77.150398"
           x="549.90179"
           y="402.32901" /></flowRegion><flowPara
         id="flowPara3908" /></flowRoot>    <path
       style="fill:none;stroke:#000000;stroke-width:4.9095993;stroke-linecap:butt;stroke-linejoin:miter;stroke-miterlimit:4;stroke-opacity:1;stroke-dasharray:none;marker-end:url(#Arrow1Mend)"
       d="m 332.05617,271.61223 73.82896,42.62518"
       id="path3910"
       inkscape:connector-curvature="0" />
    <path
       style="fill:none;stroke:#000000;stroke-width:4.9095993;stroke-linecap:butt;stroke-linejoin:miter;stroke-miterlimit:4;stroke-opacity:1;stroke-dasharray:none;marker-end:url(#Arrow1Mend)"
       d="M 284.02645,223.65884 240.23557,150.51528"
       id="path3910-1"
       inkscape:connector-curvature="0" />
    <g
       transform="matrix(0.78553587,0,0,0.78553587,39.105292,-252.50848)"
       style="font-size:40px;font-style:normal;font-weight:normal;line-height:125%;letter-spacing:0px;word-spacing:0px;fill:#000000;fill-opacity:1;stroke:none;font-family:Sans"
       id="flowRoot4566">
      <path
         d="m 326.69531,515.60434 c -0.40366,-0.23435 -0.84637,-0.40363 -1.32812,-0.50781 -0.46877,-0.11717 -0.9896,-0.17576 -1.5625,-0.17578 -2.03126,2e-5 -3.59376,0.66408 -4.6875,1.99219 -1.08074,1.31512 -1.6211,3.20964 -1.6211,5.68359 l 0,11.52344 -3.61328,0 0,-21.875 3.61328,0 0,3.39843 c 0.7552,-1.3281 1.73828,-2.31117 2.94922,-2.94921 1.21093,-0.65102 2.68228,-0.97654 4.41406,-0.97657 0.24739,3e-5 0.52082,0.0196 0.82032,0.0586 0.29946,0.0261 0.63149,0.0716 0.99609,0.13672 l 0.0195,3.6914"
         id="path5230"
         inkscape:connector-curvature="0" />
      <path
         d="m 348.35547,522.28403 0,1.75781 -16.52344,0 c 0.15625,2.47397 0.89843,4.36199 2.22656,5.66406 1.34114,1.28907 3.20312,1.9336 5.58594,1.9336 1.38019,0 2.71483,-0.16927 4.00391,-0.50781 1.30206,-0.33854 2.59112,-0.84636 3.86718,-1.52344 l 0,3.39844 c -1.28908,0.54687 -2.61069,0.96354 -3.96484,1.25 -1.35418,0.28645 -2.72788,0.42968 -4.12109,0.42968 -3.4896,0 -6.25652,-1.01562 -8.30078,-3.04687 -2.03126,-2.03125 -3.04688,-4.77864 -3.04688,-8.24219 0,-3.58071 0.96354,-6.41925 2.89063,-8.51562 1.94009,-2.10936 4.55077,-3.16404 7.83203,-3.16407 2.94269,3e-5 5.26691,0.95054 6.97265,2.85157 1.71873,1.88803 2.57811,4.45965 2.57813,7.71484 m -3.59375,-1.05469 c -0.0261,-1.96613 -0.57945,-3.53514 -1.66016,-4.70703 -1.06772,-1.17186 -2.48699,-1.75779 -4.25781,-1.75781 -2.00522,2e-5 -3.61329,0.56642 -4.82422,1.69922 -1.19792,1.13283 -1.88803,2.72788 -2.07031,4.78515 l 12.8125,-0.0195"
         id="path5232"
         inkscape:connector-curvature="0" />
      <path
         d="m 364.19531,523.12387 c -2.90365,10e-6 -4.91537,0.33204 -6.03515,0.9961 -1.1198,0.66407 -1.6797,1.79688 -1.67969,3.39843 -1e-5,1.27605 0.41666,2.29167 1.25,3.04688 0.84634,0.74219 1.99218,1.11328 3.4375,1.11328 1.99217,0 3.58722,-0.70312 4.78515,-2.10937 1.21093,-1.41927 1.81639,-3.30078 1.81641,-5.64454 l 0,-0.80078 -3.57422,0 m 7.16797,-1.48437 0,12.48047 -3.59375,0 0,-3.32032 c -0.82033,1.32813 -1.84246,2.3112 -3.06641,2.94922 -1.22397,0.625 -2.72136,0.9375 -4.49218,0.9375 -2.23959,0 -4.02345,-0.625 -5.35157,-1.875 -1.3151,-1.26302 -1.97265,-2.94921 -1.97265,-5.05859 0,-2.46093 0.82031,-4.3164 2.46094,-5.56641 1.65364,-1.24998 4.11457,-1.87498 7.38281,-1.875 l 5.03906,0 0,-0.35156 c -2e-5,-1.65363 -0.54689,-2.92967 -1.64062,-3.82812 -1.08075,-0.91144 -2.60418,-1.36717 -4.57032,-1.36719 -1.25001,2e-5 -2.46745,0.14976 -3.65234,0.44922 -1.1849,0.29949 -2.32422,0.74871 -3.41797,1.34765 l 0,-3.32031 c 1.3151,-0.50779 2.59114,-0.88539 3.82813,-1.13281 1.23697,-0.2604 2.44139,-0.3906 3.61328,-0.39063 3.16405,3e-5 5.52732,0.82034 7.08984,2.46094 1.56248,1.64064 2.34373,4.12762 2.34375,7.46094"
         id="path5234"
         inkscape:connector-curvature="0" />
      <path
         d="m 393.17969,515.56528 0,-11.83594 3.59375,0 0,30.39063 -3.59375,0 0,-3.28125 c -0.75523,1.30208 -1.71226,2.27213 -2.8711,2.91015 -1.14584,0.625 -2.52605,0.9375 -4.14062,0.9375 -2.64324,0 -4.79818,-1.05468 -6.46485,-3.16406 -1.65364,-2.10937 -2.48047,-4.8828 -2.48046,-8.32031 -1e-5,-3.43749 0.82682,-6.21092 2.48046,-8.32031 1.66667,-2.10936 3.82161,-3.16404 6.46485,-3.16407 1.61457,3e-5 2.99478,0.31904 4.14062,0.95703 1.15884,0.62502 2.11587,1.58857 2.8711,2.89063 m -12.2461,7.63672 c 0,2.64324 0.54036,4.72006 1.6211,6.23047 1.09374,1.4974 2.59113,2.24609 4.49218,2.24609 1.90103,0 3.39843,-0.74869 4.49219,-2.24609 1.09373,-1.51041 1.64061,-3.58723 1.64063,-6.23047 -2e-5,-2.64322 -0.5469,-4.71353 -1.64063,-6.21094 -1.09376,-1.5104 -2.59116,-2.26561 -4.49219,-2.26562 -1.90105,10e-6 -3.39844,0.75522 -4.49218,2.26562 -1.08074,1.49741 -1.6211,3.56772 -1.6211,6.21094"
         id="path5236"
         inkscape:connector-curvature="0" />
      <path
         d="m 317.49609,580.83872 0,11.60156 -3.61328,0 0,-30.19531 3.61328,0 0,3.32031 c 0.7552,-1.30206 1.70572,-2.26561 2.85157,-2.89063 1.15884,-0.63799 2.53905,-0.957 4.14062,-0.95703 2.65623,3e-5 4.81118,1.05471 6.46484,3.16407 1.66665,2.10939 2.49998,4.88282 2.5,8.32031 -2e-5,3.43751 -0.83335,6.21094 -2.5,8.32031 -1.65366,2.10938 -3.80861,3.16406 -6.46484,3.16406 -1.60157,0 -2.98178,-0.3125 -4.14062,-0.9375 -1.14585,-0.63802 -2.09637,-1.60807 -2.85157,-2.91015 m 12.22657,-7.63672 c -2e-5,-2.64322 -0.5469,-4.71353 -1.64063,-6.21094 -1.08074,-1.5104 -2.57163,-2.26561 -4.47266,-2.26562 -1.90105,10e-6 -3.39844,0.75522 -4.49218,2.26562 -1.08074,1.49741 -1.6211,3.56772 -1.6211,6.21094 0,2.64324 0.54036,4.72006 1.6211,6.23047 1.09374,1.4974 2.59113,2.24609 4.49218,2.24609 1.90103,0 3.39192,-0.74869 4.47266,-2.24609 1.09373,-1.51041 1.64061,-3.58723 1.64063,-6.23047"
         id="path5238"
         inkscape:connector-curvature="0" />
      <path
         d="m 347.88672,564.7645 c -1.92709,2e-5 -3.45053,0.75522 -4.57031,2.26562 -1.1198,1.49741 -1.6797,3.5547 -1.67969,6.17188 -1e-5,2.61719 0.55338,4.68099 1.66015,6.1914 1.11979,1.4974 2.64973,2.2461 4.58985,2.2461 1.91405,0 3.43097,-0.75521 4.55078,-2.26563 1.11977,-1.51041 1.67967,-3.5677 1.67969,-6.17187 -2e-5,-2.59113 -0.55992,-4.64191 -1.67969,-6.15235 -1.11981,-1.52341 -2.63673,-2.28513 -4.55078,-2.28515 m 0,-3.04688 c 3.12498,3e-5 5.57941,1.01565 7.36328,3.04688 1.78383,2.03127 2.67576,4.84376 2.67578,8.4375 -2e-5,3.58073 -0.89195,6.39323 -2.67578,8.4375 -1.78387,2.03125 -4.2383,3.04687 -7.36328,3.04687 -3.13803,0 -5.59897,-1.01562 -7.38281,-3.04687 -1.77084,-2.04427 -2.65626,-4.85677 -2.65625,-8.4375 -1e-5,-3.59374 0.88541,-6.40623 2.65625,-8.4375 1.78384,-2.03123 4.24478,-3.04685 7.38281,-3.04688"
         id="path5240"
         inkscape:connector-curvature="0" />
      <path
         d="m 363.86328,562.24497 3.59375,0 0,21.875 -3.59375,0 0,-21.875 m 0,-8.51563 3.59375,0 0,4.55078 -3.59375,0 0,-4.55078"
         id="path5242"
         inkscape:connector-curvature="0" />
      <path
         d="m 393.14062,570.91684 0,13.20313 -3.59375,0 0,-13.08594 c -1e-5,-2.0703 -0.40366,-3.61978 -1.21093,-4.64844 -0.80731,-1.02863 -2.01825,-1.54295 -3.63282,-1.54297 -1.94011,2e-5 -3.47006,0.61851 -4.58984,1.85547 -1.1198,1.237 -1.67969,2.92319 -1.67969,5.0586 l 0,12.36328 -3.61328,0 0,-21.875 3.61328,0 0,3.39843 c 0.85937,-1.31508 1.86848,-2.29815 3.02735,-2.94921 1.17186,-0.65102 2.51952,-0.97654 4.04297,-0.97657 2.513,3e-5 4.41404,0.78127 5.70312,2.34375 1.28904,1.5495 1.93357,3.83465 1.93359,6.85547"
         id="path5244"
         inkscape:connector-curvature="0" />
      <path
         d="m 403.90234,556.03403 0,6.21094 7.40235,0 0,2.79297 -7.40235,0 0,11.875 c 0,1.78385 0.24088,2.92969 0.72266,3.4375 0.49478,0.50781 1.49088,0.76172 2.98828,0.76171 l 3.69141,0 0,3.00782 -3.69141,0 c -2.77344,0 -4.68751,-0.51433 -5.74219,-1.54297 -1.05469,-1.04167 -1.58203,-2.92969 -1.58203,-5.66406 l 0,-11.875 -2.63672,0 0,-2.79297 2.63672,0 0,-6.21094 3.61328,0"
         id="path5246"
         inkscape:connector-curvature="0" />
      <path
         d="m 434.76172,572.28403 0,1.75781 -16.52344,0 c 0.15625,2.47397 0.89843,4.36199 2.22656,5.66406 1.34114,1.28907 3.20312,1.9336 5.58594,1.9336 1.38019,0 2.71483,-0.16927 4.00391,-0.50781 1.30206,-0.33854 2.59112,-0.84636 3.86718,-1.52344 l 0,3.39844 c -1.28908,0.54687 -2.61069,0.96354 -3.96484,1.25 -1.35418,0.28645 -2.72788,0.42968 -4.12109,0.42968 -3.4896,0 -6.25652,-1.01562 -8.30078,-3.04687 -2.03126,-2.03125 -3.04688,-4.77864 -3.04688,-8.24219 0,-3.58071 0.96354,-6.41925 2.89063,-8.51562 1.94009,-2.10936 4.55077,-3.16404 7.83203,-3.16407 2.94269,3e-5 5.26691,0.95054 6.97265,2.85157 1.71873,1.88803 2.57811,4.45965 2.57813,7.71484 m -3.59375,-1.05469 c -0.0261,-1.96613 -0.57945,-3.53514 -1.66016,-4.70703 -1.06772,-1.17186 -2.48699,-1.75779 -4.25781,-1.75781 -2.00522,2e-5 -3.61329,0.56642 -4.82422,1.69922 -1.19792,1.13283 -1.88803,2.72788 -2.07031,4.78515 l 12.8125,-0.0195"
         id="path5248"
         inkscape:connector-curvature="0" />
      <path
         d="m 453.33594,565.60434 c -0.40366,-0.23435 -0.84637,-0.40363 -1.32813,-0.50781 -0.46876,-0.11717 -0.98959,-0.17576 -1.5625,-0.17578 -2.03126,2e-5 -3.59376,0.66408 -4.6875,1.99219 -1.08073,1.31512 -1.6211,3.20964 -1.62109,5.68359 l 0,11.52344 -3.61328,0 0,-21.875 3.61328,0 0,3.39843 c 0.7552,-1.3281 1.73827,-2.31117 2.94922,-2.94921 1.21092,-0.65102 2.68228,-0.97654 4.41406,-0.97657 0.24738,3e-5 0.52082,0.0196 0.82031,0.0586 0.29947,0.0261 0.6315,0.0716 0.9961,0.13672 l 0.0195,3.6914"
         id="path5250"
         inkscape:connector-curvature="0" />
    </g>
    <g
       transform="matrix(0.78553587,0,0,0.78553587,8.8544453,-118.95514)"
       style="font-size:40px;font-style:normal;font-weight:normal;line-height:125%;letter-spacing:0px;word-spacing:0px;fill:#000000;fill-opacity:1;stroke:none;font-family:Sans"
       id="flowRoot4566-3">
      <path
         d="m 311.92969,512.24497 3.59375,0 4.49218,17.07031 4.47266,-17.07031 4.23828,0 4.49219,17.07031 4.47266,-17.07031 3.59375,0 -5.72266,21.875 -4.23828,0 -4.70703,-17.92969 -4.72657,17.92969 -4.23828,0 -5.72265,-21.875"
         id="path5205"
         inkscape:connector-curvature="0" />
      <path
         d="m 359.42969,515.60434 c -0.40366,-0.23435 -0.84637,-0.40363 -1.32813,-0.50781 -0.46876,-0.11717 -0.98959,-0.17576 -1.5625,-0.17578 -2.03126,2e-5 -3.59376,0.66408 -4.6875,1.99219 -1.08073,1.31512 -1.6211,3.20964 -1.62109,5.68359 l 0,11.52344 -3.61328,0 0,-21.875 3.61328,0 0,3.39843 c 0.7552,-1.3281 1.73827,-2.31117 2.94922,-2.94921 1.21092,-0.65102 2.68228,-0.97654 4.41406,-0.97657 0.24738,3e-5 0.52082,0.0196 0.82031,0.0586 0.29947,0.0261 0.6315,0.0716 0.9961,0.13672 l 0.0195,3.6914"
         id="path5207"
         inkscape:connector-curvature="0" />
      <path
         d="m 363.23828,512.24497 3.59375,0 0,21.875 -3.59375,0 0,-21.875 m 0,-8.51563 3.59375,0 0,4.55078 -3.59375,0 0,-4.55078"
         id="path5209"
         inkscape:connector-curvature="0" />
      <path
         d="m 377.88672,506.03403 0,6.21094 7.40234,0 0,2.79297 -7.40234,0 0,11.875 c -1e-5,1.78385 0.24088,2.92969 0.72265,3.4375 0.49479,0.50781 1.49088,0.76172 2.98829,0.76171 l 3.6914,0 0,3.00782 -3.6914,0 c -2.77345,0 -4.68751,-0.51433 -5.74219,-1.54297 -1.05469,-1.04167 -1.58204,-2.92969 -1.58203,-5.66406 l 0,-11.875 -2.63672,0 0,-2.79297 2.63672,0 0,-6.21094 3.61328,0"
         id="path5211"
         inkscape:connector-curvature="0" />
      <path
         d="m 408.74609,522.28403 0,1.75781 -16.52343,0 c 0.15624,2.47397 0.89843,4.36199 2.22656,5.66406 1.34114,1.28907 3.20311,1.9336 5.58594,1.9336 1.38019,0 2.71482,-0.16927 4.0039,-0.50781 1.30207,-0.33854 2.59113,-0.84636 3.86719,-1.52344 l 0,3.39844 c -1.28908,0.54687 -2.6107,0.96354 -3.96484,1.25 -1.35419,0.28645 -2.72788,0.42968 -4.1211,0.42968 -3.48959,0 -6.25652,-1.01562 -8.30078,-3.04687 -2.03125,-2.03125 -3.04688,-4.77864 -3.04687,-8.24219 -1e-5,-3.58071 0.96353,-6.41925 2.89062,-8.51562 1.9401,-2.10936 4.55077,-3.16404 7.83203,-3.16407 2.94269,3e-5 5.26691,0.95054 6.97266,2.85157 1.71873,1.88803 2.5781,4.45965 2.57812,7.71484 m -3.59375,-1.05469 c -0.0261,-1.96613 -0.57944,-3.53514 -1.66015,-4.70703 -1.06773,-1.17186 -2.487,-1.75779 -4.25782,-1.75781 -2.00521,2e-5 -3.61329,0.56642 -4.82421,1.69922 -1.19793,1.13283 -1.88803,2.72788 -2.07032,4.78515 l 12.8125,-0.0195"
         id="path5213"
         inkscape:connector-curvature="0" />
      <path
         d="m 317.49609,580.83872 0,11.60156 -3.61328,0 0,-30.19531 3.61328,0 0,3.32031 c 0.7552,-1.30206 1.70572,-2.26561 2.85157,-2.89063 1.15884,-0.63799 2.53905,-0.957 4.14062,-0.95703 2.65623,3e-5 4.81118,1.05471 6.46484,3.16407 1.66665,2.10939 2.49998,4.88282 2.5,8.32031 -2e-5,3.43751 -0.83335,6.21094 -2.5,8.32031 -1.65366,2.10938 -3.80861,3.16406 -6.46484,3.16406 -1.60157,0 -2.98178,-0.3125 -4.14062,-0.9375 -1.14585,-0.63802 -2.09637,-1.60807 -2.85157,-2.91015 m 12.22657,-7.63672 c -2e-5,-2.64322 -0.5469,-4.71353 -1.64063,-6.21094 -1.08074,-1.5104 -2.57163,-2.26561 -4.47266,-2.26562 -1.90105,10e-6 -3.39844,0.75522 -4.49218,2.26562 -1.08074,1.49741 -1.6211,3.56772 -1.6211,6.21094 0,2.64324 0.54036,4.72006 1.6211,6.23047 1.09374,1.4974 2.59113,2.24609 4.49218,2.24609 1.90103,0 3.39192,-0.74869 4.47266,-2.24609 1.09373,-1.51041 1.64061,-3.58723 1.64063,-6.23047"
         id="path5215"
         inkscape:connector-curvature="0" />
      <path
         d="m 347.88672,564.7645 c -1.92709,2e-5 -3.45053,0.75522 -4.57031,2.26562 -1.1198,1.49741 -1.6797,3.5547 -1.67969,6.17188 -1e-5,2.61719 0.55338,4.68099 1.66015,6.1914 1.11979,1.4974 2.64973,2.2461 4.58985,2.2461 1.91405,0 3.43097,-0.75521 4.55078,-2.26563 1.11977,-1.51041 1.67967,-3.5677 1.67969,-6.17187 -2e-5,-2.59113 -0.55992,-4.64191 -1.67969,-6.15235 -1.11981,-1.52341 -2.63673,-2.28513 -4.55078,-2.28515 m 0,-3.04688 c 3.12498,3e-5 5.57941,1.01565 7.36328,3.04688 1.78383,2.03127 2.67576,4.84376 2.67578,8.4375 -2e-5,3.58073 -0.89195,6.39323 -2.67578,8.4375 -1.78387,2.03125 -4.2383,3.04687 -7.36328,3.04687 -3.13803,0 -5.59897,-1.01562 -7.38281,-3.04687 -1.77084,-2.04427 -2.65626,-4.85677 -2.65625,-8.4375 -1e-5,-3.59374 0.88541,-6.40623 2.65625,-8.4375 1.78384,-2.03123 4.24478,-3.04685 7.38281,-3.04688"
         id="path5217"
         inkscape:connector-curvature="0" />
      <path
         d="m 363.86328,562.24497 3.59375,0 0,21.875 -3.59375,0 0,-21.875 m 0,-8.51563 3.59375,0 0,4.55078 -3.59375,0 0,-4.55078"
         id="path5219"
         inkscape:connector-curvature="0" />
      <path
         d="m 393.14062,570.91684 0,13.20313 -3.59375,0 0,-13.08594 c -1e-5,-2.0703 -0.40366,-3.61978 -1.21093,-4.64844 -0.80731,-1.02863 -2.01825,-1.54295 -3.63282,-1.54297 -1.94011,2e-5 -3.47006,0.61851 -4.58984,1.85547 -1.1198,1.237 -1.67969,2.92319 -1.67969,5.0586 l 0,12.36328 -3.61328,0 0,-21.875 3.61328,0 0,3.39843 c 0.85937,-1.31508 1.86848,-2.29815 3.02735,-2.94921 1.17186,-0.65102 2.51952,-0.97654 4.04297,-0.97657 2.513,3e-5 4.41404,0.78127 5.70312,2.34375 1.28904,1.5495 1.93357,3.83465 1.93359,6.85547"
         id="path5221"
         inkscape:connector-curvature="0" />
      <path
         d="m 403.90234,556.03403 0,6.21094 7.40235,0 0,2.79297 -7.40235,0 0,11.875 c 0,1.78385 0.24088,2.92969 0.72266,3.4375 0.49478,0.50781 1.49088,0.76172 2.98828,0.76171 l 3.69141,0 0,3.00782 -3.69141,0 c -2.77344,0 -4.68751,-0.51433 -5.74219,-1.54297 -1.05469,-1.04167 -1.58203,-2.92969 -1.58203,-5.66406 l 0,-11.875 -2.63672,0 0,-2.79297 2.63672,0 0,-6.21094 3.61328,0"
         id="path5223"
         inkscape:connector-curvature="0" />
      <path
         d="m 434.76172,572.28403 0,1.75781 -16.52344,0 c 0.15625,2.47397 0.89843,4.36199 2.22656,5.66406 1.34114,1.28907 3.20312,1.9336 5.58594,1.9336 1.38019,0 2.71483,-0.16927 4.00391,-0.50781 1.30206,-0.33854 2.59112,-0.84636 3.86718,-1.52344 l 0,3.39844 c -1.28908,0.54687 -2.61069,0.96354 -3.96484,1.25 -1.35418,0.28645 -2.72788,0.42968 -4.12109,0.42968 -3.4896,0 -6.25652,-1.01562 -8.30078,-3.04687 -2.03126,-2.03125 -3.04688,-4.77864 -3.04688,-8.24219 0,-3.58071 0.96354,-6.41925 2.89063,-8.51562 1.94009,-2.10936 4.55077,-3.16404 7.83203,-3.16407 2.94269,3e-5 5.26691,0.95054 6.97265,2.85157 1.71873,1.88803 2.57811,4.45965 2.57813,7.71484 m -3.59375,-1.05469 c -0.0261,-1.96613 -0.57945,-3.53514 -1.66016,-4.70703 -1.06772,-1.17186 -2.48699,-1.75779 -4.25781,-1.75781 -2.00522,2e-5 -3.61329,0.56642 -4.82422,1.69922 -1.19792,1.13283 -1.88803,2.72788 -2.07031,4.78515 l 12.8125,-0.0195"
         id="path5225"
         inkscape:connector-curvature="0" />
      <path
         d="m 453.33594,565.60434 c -0.40366,-0.23435 -0.84637,-0.40363 -1.32813,-0.50781 -0.46876,-0.11717 -0.98959,-0.17576 -1.5625,-0.17578 -2.03126,2e-5 -3.59376,0.66408 -4.6875,1.99219 -1.08073,1.31512 -1.6211,3.20964 -1.62109,5.68359 l 0,11.52344 -3.61328,0 0,-21.875 3.61328,0 0,3.39843 c 0.7552,-1.3281 1.73827,-2.31117 2.94922,-2.94921 1.21092,-0.65102 2.68228,-0.97654 4.41406,-0.97657 0.24738,3e-5 0.52082,0.0196 0.82031,0.0586 0.29947,0.0261 0.6315,0.0716 0.9961,0.13672 l 0.0195,3.6914"
         id="path5227"
         inkscape:connector-curvature="0" />
    </g>
    <g
       transform="matrix(0.78553587,0,0,0.78553587,-80.627871,-120.88258)"
       style="font-size:40px;font-style:normal;font-weight:normal;line-height:125%;letter-spacing:0px;word-spacing:0px;fill:#000000;fill-opacity:1;stroke:none;font-family:Sans"
       id="flowRoot4648">
      <path
         d="m 444.45312,294.38559 0,13.20313 -3.59375,0 0,-13.08594 c -1e-5,-2.0703 -0.40366,-3.61978 -1.21093,-4.64844 -0.80731,-1.02863 -2.01825,-1.54295 -3.63282,-1.54297 -1.94011,2e-5 -3.47006,0.61851 -4.58984,1.85547 -1.1198,1.237 -1.67969,2.92319 -1.67969,5.0586 l 0,12.36328 -3.61328,0 0,-30.39063 3.61328,0 0,11.91406 c 0.85937,-1.31508 1.86848,-2.29815 3.02735,-2.94921 1.17186,-0.65102 2.51952,-0.97654 4.04297,-0.97657 2.513,3e-5 4.41404,0.78127 5.70312,2.34375 1.28904,1.5495 1.93357,3.83465 1.93359,6.85547"
         id="path5202"
         inkscape:connector-curvature="0" />
    </g>
    <g
       transform="matrix(0.78553587,0,0,0.78553587,-2.2342804,-121.32752)"
       style="font-size:40px;font-style:normal;font-weight:normal;line-height:125%;letter-spacing:0px;word-spacing:0px;fill:#000000;fill-opacity:1;stroke:none;font-family:Sans"
       id="flowRoot4648-2">
      <path
         d="m 444.98047,295.75278 0,1.75781 -16.52344,0 c 0.15625,2.47397 0.89843,4.36199 2.22656,5.66406 1.34114,1.28907 3.20312,1.9336 5.58594,1.9336 1.38019,0 2.71483,-0.16927 4.00391,-0.50781 1.30206,-0.33854 2.59112,-0.84636 3.86718,-1.52344 l 0,3.39844 c -1.28908,0.54687 -2.61069,0.96354 -3.96484,1.25 -1.35418,0.28645 -2.72788,0.42968 -4.12109,0.42968 -3.4896,0 -6.25652,-1.01562 -8.30078,-3.04687 -2.03126,-2.03125 -3.04688,-4.77864 -3.04688,-8.24219 0,-3.58071 0.96354,-6.41925 2.89063,-8.51562 1.94009,-2.10936 4.55077,-3.16404 7.83203,-3.16407 2.94269,3e-5 5.26691,0.95054 6.97265,2.85157 1.71873,1.88803 2.57811,4.45965 2.57813,7.71484 m -3.59375,-1.05469 c -0.0261,-1.96613 -0.57945,-3.53514 -1.66016,-4.70703 -1.06772,-1.17186 -2.48699,-1.75779 -4.25781,-1.75781 -2.00522,2e-5 -3.61329,0.56642 -4.82422,1.69922 -1.19792,1.13283 -1.88803,2.72788 -2.07031,4.78515 l 12.8125,-0.0195"
         id="path5199"
         inkscape:connector-curvature="0" />
    </g>
    <g
       transform="matrix(0.78553587,0,0,0.78553587,69.237648,-88.006216)"
       style="font-size:40px;font-style:normal;font-weight:normal;line-height:125%;letter-spacing:0px;word-spacing:0px;fill:#000000;fill-opacity:1;stroke:none;font-family:Sans"
       id="flowRoot4648-2-4">
      <path
         d="m 426.26953,277.19809 3.59375,0 0,30.39063 -3.59375,0 0,-30.39063"
         id="path5196"
         inkscape:connector-curvature="0" />
    </g>
    <g
       transform="matrix(0.78553587,0,0,0.78553587,114.67994,-17.174291)"
       style="font-size:40px;font-style:normal;font-weight:normal;line-height:125%;letter-spacing:0px;word-spacing:0px;fill:#000000;fill-opacity:1;stroke:none;font-family:Sans"
       id="flowRoot4648-2-4-6">
      <path
         d="m 426.26953,277.19809 3.59375,0 0,30.39063 -3.59375,0 0,-30.39063"
         id="path5193"
         inkscape:connector-curvature="0" />
    </g>
    <g
       transform="matrix(0.78553587,0,0,0.78553587,104.65033,61.239024)"
       style="font-size:40px;font-style:normal;font-weight:normal;line-height:125%;letter-spacing:0px;word-spacing:0px;fill:#000000;fill-opacity:1;stroke:none;font-family:Sans"
       id="flowRoot4648-2-4-1">
      <path
         d="m 434.74609,288.23325 c -1.92709,2e-5 -3.45053,0.75522 -4.57031,2.26562 -1.1198,1.49741 -1.67969,3.5547 -1.67969,6.17188 0,2.61719 0.55338,4.68099 1.66016,6.1914 1.11978,1.4974 2.64973,2.2461 4.58984,2.2461 1.91405,0 3.43098,-0.75521 4.55078,-2.26563 1.11978,-1.51041 1.67967,-3.5677 1.67969,-6.17187 -2e-5,-2.59113 -0.55991,-4.64191 -1.67969,-6.15235 -1.1198,-1.52341 -2.63673,-2.28513 -4.55078,-2.28515 m 0,-3.04688 c 3.12499,3e-5 5.57941,1.01565 7.36328,3.04688 1.78384,2.03127 2.67576,4.84376 2.67579,8.4375 -3e-5,3.58073 -0.89195,6.39323 -2.67579,8.4375 -1.78387,2.03125 -4.23829,3.04687 -7.36328,3.04687 -3.13803,0 -5.59896,-1.01562 -7.38281,-3.04687 -1.77084,-2.04427 -2.65625,-4.85677 -2.65625,-8.4375 0,-3.59374 0.88541,-6.40623 2.65625,-8.4375 1.78385,-2.03123 4.24478,-3.04685 7.38281,-3.04688"
         id="path5190"
         inkscape:connector-curvature="0" />
    </g>
    <g
       transform="matrix(0.25935375,0.74148651,-0.74148651,0.25935375,600.10457,-142.15229)"
       style="font-size:40px;font-style:normal;font-weight:normal;line-height:125%;letter-spacing:0px;word-spacing:0px;fill:#000000;fill-opacity:1;stroke:none;font-family:Sans"
       id="text4815">
      <path
         d="m 179.29198,298.00876 2.21889,2.52229 c -1.13237,0.25047 -2.17502,0.61276 -3.12795,1.08686 -0.95176,0.45577 -1.81869,1.02766 -2.6008,1.71566 -1.74995,1.53949 -2.61863,3.29218 -2.60605,5.2581 0.004,1.95617 0.88752,3.93632 2.65059,5.94044 1.76307,2.00415 3.61875,3.13776 5.56705,3.40081 1.93969,0.25329 3.78451,-0.38979 5.53448,-1.92927 0.78209,-0.68801 1.46411,-1.47009 2.04607,-2.34623 0.58311,-0.8945 1.07103,-1.88735 1.46378,-2.97858 l 2.19309,2.49296 c -0.44318,1.01419 -0.99307,1.96617 -1.64968,2.85596 -0.64686,0.88122 -1.42489,1.72173 -2.33407,2.52156 -2.47341,2.17589 -5.12217,3.12735 -7.94629,2.85436 -2.82413,-0.27297 -5.39723,-1.72926 -7.71933,-4.36886 -2.35649,-2.6787 -3.47665,-5.43051 -3.36047,-8.25546 0.12598,-2.83351 1.46965,-5.37692 4.03104,-7.63024 0.83099,-0.731 1.71982,-1.35684 2.6665,-1.87753 0.93809,-0.5304 1.92914,-0.95134 2.97315,-1.26283"
         id="path5175"
         inkscape:connector-curvature="0" />
      <path
         d="m 199.83996,295.21627 c -2.35954,1.69228 -3.80077,3.13453 -4.3237,4.32676 -0.52294,1.19226 -0.3177,2.43911 0.6157,3.74054 0.74368,1.03694 1.67418,1.61941 2.7915,1.74742 1.1203,0.10985 2.26769,-0.25639 3.44218,-1.09874 1.61886,-1.16105 2.50523,-2.66202 2.65911,-4.50292 0.15685,-1.85904 -0.4477,-3.74085 -1.81364,-5.64542 l -0.4667,-0.65072 -2.90445,2.08308 m 4.95966,-5.38376 7.27371,10.14176 -2.92032,2.09446 -1.9351,-2.69812 c 0.10743,1.55734 -0.15023,2.95191 -0.77297,4.18369 -0.63036,1.22122 -1.66503,2.34785 -3.10402,3.3799 -1.81992,1.30525 -3.63375,1.83701 -5.4415,1.59528 -1.80477,-0.25989 -3.32183,-1.24688 -4.55119,-2.96099 -1.43425,-1.99977 -1.84903,-3.98563 -1.24435,-5.95757 0.61526,-1.97951 2.25079,-3.92164 4.90659,-5.8264 l 4.09479,-2.9368 -0.20489,-0.28568 c -0.96376,-1.34375 -2.15184,-2.06195 -3.56425,-2.15461 -1.40941,-0.11078 -2.91298,0.40676 -4.51069,1.55262 -1.01576,0.72853 -1.9178,1.55974 -2.70612,2.49365 -0.78832,0.93394 -1.45234,1.96299 -1.99206,3.08713 l -1.9351,-2.69812 c 0.77272,-1.17908 1.58957,-2.22961 2.45056,-3.15159 0.85342,-0.93251 1.75626,-1.74027 2.70854,-2.42327 2.57115,-1.84401 4.96966,-2.55475 7.19553,-2.13223 2.22587,0.42258 4.31015,1.98821 6.25284,4.69689"
         id="path5177"
         inkscape:connector-curvature="0" />
      <path
         d="m 227.39175,275.36672 6.63582,11.4144 -3.10688,1.8062 -6.57692,-11.31309 c -1.04053,-1.78981 -2.16825,-2.92649 -3.38316,-3.41006 -1.21492,-0.48353 -2.52029,-0.31956 -3.91613,0.49189 -1.67727,0.97511 -2.68909,2.27875 -3.03548,3.91093 -0.34638,1.63221 0.0171,3.37137 1.0903,5.21747 l 6.21371,10.68833 -3.12376,1.81602 -10.99425,-18.91143 3.12376,-1.81602 1.70804,2.93803 c 0.082,-1.56883 0.4603,-2.9259 1.13494,-4.07119 0.68591,-1.1518 1.68738,-2.11054 3.00442,-2.87624 2.17256,-1.263 4.20871,-1.54304 6.10844,-0.84013 1.89317,0.69171 3.59889,2.34334 5.11715,4.95489"
         id="path5179"
         inkscape:connector-curvature="0" />
      <path
         d="m 256.66313,256.25056 c -0.46262,-0.062 -0.93641,-0.0489 -1.42135,0.0392 -0.47792,0.0712 -0.98151,0.21642 -1.51079,0.43569 -1.87655,0.77754 -3.06587,1.98912 -3.56794,3.63474 -0.49503,1.62864 -0.26906,3.58572 0.67792,5.87125 l 4.41091,10.64582 -3.33809,1.38308 -8.37326,-20.20901 3.3381,-1.38308 1.30084,3.13961 c 0.18932,-1.51603 0.72122,-2.80053 1.59571,-3.8535 0.86951,-1.06496 2.10421,-1.92889 3.70409,-2.59179 0.22855,-0.0947 0.48864,-0.1813 0.78027,-0.25987 0.28663,-0.0906 0.61082,-0.17554 0.97256,-0.25498 l 1.43103,3.4028"
         id="path5181"
         inkscape:connector-curvature="0" />
      <path
         d="m 280.82655,255.4309 0.52735,1.67684 -15.7623,4.95718 c 0.89126,2.31313 2.16568,3.89152 3.82326,4.73517 1.66609,0.82733 3.63567,0.88356 5.90873,0.16869 1.31662,-0.41407 2.53899,-0.97594 3.66712,-1.68563 1.14052,-0.71357 2.21786,-1.58472 3.23201,-2.61345 l 1.01956,3.24189 c -1.06563,0.90842 -2.20137,1.70239 -3.4072,2.38191 -1.20586,0.67953 -2.47331,1.22828 -3.80235,1.64626 -3.32885,1.04691 -6.27301,0.90817 -8.83251,-0.41622 -2.54707,-1.32828 -4.34016,-3.64442 -5.37925,-6.94843 -1.07425,-3.41577 -1.00668,-6.41263 0.20271,-8.99058 1.2179,-2.59423 3.39191,-4.38356 6.52201,-5.36799 2.80715,-0.88281 5.30947,-0.67336 7.50697,0.62835 2.20598,1.28544 3.79728,3.48077 4.77389,6.58601 m -3.74463,0.072 c -0.61472,-1.86774 -1.61333,-3.19846 -2.99583,-3.99214 -1.37011,-0.79755 -2.89979,-0.93071 -4.58905,-0.39946 -1.91284,0.6016 -3.27691,1.62435 -4.09221,3.06825 -0.80289,1.44004 -0.98267,3.16865 -0.53936,5.18585 l 12.21645,-3.8625"
         id="path5183"
         inkscape:connector-curvature="0" />
      <path
         d="m 297.81874,252.66923 c -2.85149,0.54788 -4.76443,1.25353 -5.7388,2.11694 -0.97439,0.86343 -1.31048,2.08154 -1.00829,3.65432 0.24076,1.25313 0.84158,2.17189 1.80244,2.75629 0.97119,0.56917 2.16646,0.7174 3.58582,0.44469 1.95639,-0.37589 3.39012,-1.36734 4.3012,-2.97437 0.92138,-1.62225 1.16096,-3.5842 0.71875,-5.88587 l -0.1511,-0.78639 -3.51002,0.67439 m 6.75915,-2.81019 2.35485,12.2563 -3.5292,0.67808 -0.62648,-3.26067 c -0.555,1.45905 -1.37329,2.61732 -2.45486,3.47482 -1.08406,0.84472 -2.4956,1.43414 -4.23461,1.76826 -2.19936,0.42257 -4.0691,0.14539 -5.60922,-0.83157 -1.5298,-0.99219 -2.49369,-2.52403 -2.8917,-4.59552 -0.46433,-2.41673 -0.009,-4.39365 1.36645,-5.93076 1.38808,-1.53955 3.68689,-2.61766 6.89642,-3.23434 l 4.94855,-0.95079 -0.0663,-0.34524 c -0.31203,-1.62393 -1.08985,-2.77386 -2.33346,-3.44981 -1.23331,-0.69115 -2.81537,-0.85124 -4.74619,-0.48029 -1.22755,0.23588 -2.39488,0.61264 -3.50198,1.13029 -1.10711,0.51769 -2.1412,1.17381 -3.10229,1.96836 l -0.62649,-3.26067 c 1.19566,-0.74681 2.37754,-1.3584 3.54562,-1.83477 1.16562,-0.48911 2.32384,-0.84424 3.47468,-1.06537 3.10721,-0.59698 5.58282,-0.23732 7.42683,1.079 1.84398,1.31636 3.08044,3.61125 3.70941,6.88469"
         id="path5185"
         inkscape:connector-curvature="0" />
      <path
         d="m 327.44561,241.66517 -0.78096,-11.81014 3.58592,-0.23713 2.00524,30.3244 -3.58592,0.23713 -0.2165,-3.2741 c -0.66767,1.34908 -1.55861,2.38016 -2.67282,3.09325 -1.10211,0.69924 -2.45869,1.10213 -4.06975,1.20867 -2.63747,0.1744 -4.85731,-0.7358 -6.65952,-2.73061 -1.78923,-1.99566 -2.79725,-4.70849 -3.02406,-8.13851 -0.22681,-3.43 0.41521,-6.25194 1.92607,-8.46585 1.52385,-2.21473 3.60451,-3.4093 6.24199,-3.58373 1.61105,-0.10651 3.0093,0.12073 4.19474,0.68174 1.19756,0.54719 2.21608,1.44549 3.05557,2.69488 m -11.71552,8.4281 c 0.1744,2.63748 0.85062,4.67412 2.02866,6.10993 1.19016,1.42197 2.73369,2.07023 4.6306,1.9448 1.89689,-0.12544 3.34162,-0.9713 4.3342,-2.53761 0.99169,-1.57928 1.40034,-3.68766 1.22595,-6.32514 -0.17442,-2.63745 -0.85671,-4.66717 -2.04686,-6.08915 -1.19104,-1.43494 -2.735,-2.0897 -4.63189,-1.96428 -1.89691,0.12545 -3.34121,0.97781 -4.33291,2.55709 -0.97958,1.56545 -1.38216,3.66691 -1.20775,6.30436"
         id="path5187"
         inkscape:connector-curvature="0" />
    </g>
    <g
       transform="matrix(-0.12619888,-0.77533248,0.77533248,-0.12619888,-54.624132,592.41178)"
       style="font-size:40px;font-style:normal;font-weight:normal;line-height:125%;letter-spacing:0px;word-spacing:0px;fill:#000000;fill-opacity:1;stroke:none;font-family:Sans"
       id="text4856">
      <path
         d="m 179.29198,298.00876 2.21889,2.52229 c -1.13237,0.25047 -2.17502,0.61276 -3.12795,1.08686 -0.95176,0.45577 -1.81869,1.02766 -2.6008,1.71566 -1.74995,1.53949 -2.61863,3.29218 -2.60605,5.2581 0.004,1.95617 0.88752,3.93632 2.65059,5.94044 1.76307,2.00415 3.61875,3.13776 5.56705,3.40081 1.93969,0.25329 3.78451,-0.38979 5.53448,-1.92927 0.78209,-0.68801 1.46411,-1.47009 2.04607,-2.34623 0.58311,-0.8945 1.07103,-1.88735 1.46378,-2.97858 l 2.19309,2.49296 c -0.44318,1.01419 -0.99307,1.96617 -1.64968,2.85596 -0.64686,0.88122 -1.42489,1.72173 -2.33407,2.52156 -2.47341,2.17589 -5.12217,3.12735 -7.94629,2.85436 -2.82413,-0.27297 -5.39723,-1.72926 -7.71933,-4.36886 -2.35649,-2.6787 -3.47665,-5.43051 -3.36047,-8.25546 0.12598,-2.83351 1.46965,-5.37692 4.03104,-7.63024 0.83099,-0.731 1.71982,-1.35684 2.6665,-1.87753 0.93809,-0.5304 1.92914,-0.95134 2.97315,-1.26283"
         id="path5158"
         inkscape:connector-curvature="0" />
      <path
         d="m 199.83996,295.21627 c -2.35954,1.69228 -3.80077,3.13453 -4.3237,4.32676 -0.52294,1.19226 -0.3177,2.43911 0.6157,3.74054 0.74368,1.03694 1.67418,1.61941 2.7915,1.74742 1.1203,0.10985 2.26769,-0.25639 3.44218,-1.09874 1.61886,-1.16105 2.50523,-2.66202 2.65911,-4.50292 0.15685,-1.85904 -0.4477,-3.74085 -1.81364,-5.64542 l -0.4667,-0.65072 -2.90445,2.08308 m 4.95966,-5.38376 7.27371,10.14176 -2.92032,2.09446 -1.9351,-2.69812 c 0.10743,1.55734 -0.15023,2.95191 -0.77297,4.18369 -0.63036,1.22122 -1.66503,2.34785 -3.10402,3.3799 -1.81992,1.30525 -3.63375,1.83701 -5.4415,1.59528 -1.80477,-0.25989 -3.32183,-1.24688 -4.55119,-2.96099 -1.43425,-1.99977 -1.84903,-3.98563 -1.24435,-5.95757 0.61526,-1.97951 2.25079,-3.92164 4.90659,-5.8264 l 4.09479,-2.9368 -0.20489,-0.28568 c -0.96376,-1.34375 -2.15184,-2.06195 -3.56425,-2.15461 -1.40941,-0.11078 -2.91298,0.40676 -4.51069,1.55262 -1.01576,0.72853 -1.9178,1.55974 -2.70612,2.49365 -0.78832,0.93394 -1.45234,1.96299 -1.99206,3.08713 l -1.9351,-2.69812 c 0.77272,-1.17908 1.58957,-2.22961 2.45056,-3.15159 0.85342,-0.93251 1.75626,-1.74027 2.70854,-2.42327 2.57115,-1.84401 4.96966,-2.55475 7.19553,-2.13223 2.22587,0.42258 4.31015,1.98821 6.25284,4.69689"
         id="path5160"
         inkscape:connector-curvature="0" />
      <path
         d="m 227.39175,275.36672 6.63582,11.4144 -3.10688,1.8062 -6.57692,-11.31309 c -1.04053,-1.78981 -2.16825,-2.92649 -3.38316,-3.41006 -1.21492,-0.48353 -2.52029,-0.31956 -3.91613,0.49189 -1.67727,0.97511 -2.68909,2.27875 -3.03548,3.91093 -0.34638,1.63221 0.0171,3.37137 1.0903,5.21747 l 6.21371,10.68833 -3.12376,1.81602 -10.99425,-18.91143 3.12376,-1.81602 1.70804,2.93803 c 0.082,-1.56883 0.4603,-2.9259 1.13494,-4.07119 0.68591,-1.1518 1.68738,-2.11054 3.00442,-2.87624 2.17256,-1.263 4.20871,-1.54304 6.10844,-0.84013 1.89317,0.69171 3.59889,2.34334 5.11715,4.95489"
         id="path5162"
         inkscape:connector-curvature="0" />
      <path
         d="m 242.35074,258.13773 3.36887,-1.25131 10.15479,14.43799 -1.75093,-17.55946 3.97306,-1.47572 10.15479,14.43799 -1.75093,-17.55946 3.36887,-1.2513 2.25209,22.49872 -3.97306,1.47572 -10.65542,-15.16878 1.81214,18.45346 -3.97307,1.47573 -12.9812,-18.51358"
         id="path5164"
         inkscape:connector-curvature="0" />
      <path
         d="m 290.69396,246.27719 c -0.44844,-0.12951 -0.91898,-0.1864 -1.41162,-0.17068 -0.48319,-3e-5 -1.00269,0.0694 -1.5585,0.20826 -1.97066,0.49247 -3.32556,1.51552 -4.06469,3.06917 -0.72967,1.53789 -0.79461,3.50691 -0.19484,5.90705 l 2.79368,11.17967 -3.50549,0.87598 -5.30325,-21.22242 3.50549,-0.87599 0.8239,3.29706 c 0.41069,-1.47157 1.12611,-2.66365 2.14625,-3.57623 1.01697,-0.92517 2.36551,-1.59768 4.04563,-2.01755 0.24,-0.06 0.51002,-0.10729 0.81004,-0.14202 0.29685,-0.0473 0.63002,-0.0836 0.99952,-0.10885 l 0.91388,3.57655"
         id="path5166"
         inkscape:connector-curvature="0" />
      <path
         d="m 295.05663,242.11585 3.53628,-0.6401 3.89628,21.5252 -3.53628,0.64011 -3.89628,-21.52521 m -1.51677,-8.37946 3.53629,-0.6401 0.81056,4.47801 -3.53628,0.6401 -0.81057,-4.47801"
         id="path5168"
         inkscape:connector-curvature="0" />
      <path
         d="m 310.26546,233.52507 0.69992,6.17138 7.35519,-0.83418 0.31474,2.77518 -7.35519,0.83417 1.3382,11.79936 c 0.20102,1.7725 0.56949,2.88389 1.10543,3.33417 0.54886,0.44882 1.56722,0.58886 3.05508,0.42011 l 3.6679,-0.41599 0.33895,2.98866 -3.66789,0.41599 c -2.75578,0.31254 -4.71561,0.0172 -5.87949,-0.88605 -1.16536,-0.91618 -1.90211,-2.73274 -2.21024,-5.44971 l -1.33821,-11.79935 -2.61992,0.29713 -0.31474,-2.77518 2.61992,-0.29713 -0.69992,-6.17137 3.59027,-0.40719"
         id="path5170"
         inkscape:connector-curvature="0" />
      <path
         d="m 344.11085,248.17697 0.0189,1.75771 -16.52248,0.17771 c 0.18284,2.47214 0.94529,4.35207 2.28735,5.63979 1.35492,1.27456 3.22372,1.89903 5.60641,1.8734 1.38011,-0.0148 2.71285,-0.19846 3.99821,-0.55084 1.29835,-0.35253 2.58188,-0.87417 3.85058,-1.56495 l 0.0365,3.39825 c -1.28312,0.5607 -2.60018,0.99156 -3.95117,1.29257 -1.35102,0.301 -2.7231,0.459 -4.11623,0.47398 -3.48939,0.0375 -6.26708,-0.94828 -8.33307,-2.95742 -2.05298,-2.00929 -3.0981,-4.7456 -3.13535,-8.20894 -0.0385,-3.58051 0.89445,-6.42925 2.79888,-8.54623 1.91729,-2.13009 4.51647,-3.2128 7.79754,-3.24811 2.94253,-0.0316 5.27683,0.89384 7.00293,2.77641 1.73893,1.86944 2.62591,4.43166 2.66095,7.68667 m -3.60489,-1.01598 c -0.0472,-1.96574 -0.61743,-3.5287 -1.71068,-4.6889 -1.08027,-1.16031 -2.50576,-1.73095 -4.27648,-1.71192 -2.0051,0.0216 -3.60699,0.60525 -4.80566,1.751 -1.18567,1.14565 -1.85858,2.74803 -2.01873,4.80715 l 12.81155,-0.15733"
         id="path5172"
         inkscape:connector-curvature="0" />
    </g>
    <flowRoot
       xml:space="preserve"
       id="flowRoot4648-1"
       style="font-size:40px;font-style:normal;font-weight:normal;line-height:125%;letter-spacing:0px;word-spacing:0px;fill:#000000;fill-opacity:1;stroke:none;font-family:Sans"
       transform="translate(-239.13225,166.84378)"><flowRegion
         id="flowRegion4650-2"><rect
           id="rect4652-5"
           width="89.375"
           height="69.64286"
           x="422.5"
           y="267.71933" /></flowRegion><flowPara
         id="flowPara4654-5" /></flowRoot>    <g
       transform="matrix(0.78553587,0,0,0.78553587,-182.91082,-13.80332)"
       style="font-size:40px;font-style:normal;font-weight:normal;line-height:125%;letter-spacing:0px;word-spacing:0px;fill:#000000;fill-opacity:1;stroke:none;font-family:Sans"
       id="flowRoot4648-1-6">
      <path
         d="m 440.66406,289.03403 0,-11.83594 3.59375,0 0,30.39063 -3.59375,0 0,-3.28125 c -0.75522,1.30208 -1.71225,2.27213 -2.87109,2.91015 -1.14585,0.625 -2.52606,0.9375 -4.14063,0.9375 -2.64323,0 -4.79818,-1.05468 -6.46484,-3.16406 -1.65365,-2.10937 -2.48047,-4.8828 -2.48047,-8.32031 0,-3.43749 0.82682,-6.21092 2.48047,-8.32031 1.66666,-2.10936 3.82161,-3.16404 6.46484,-3.16407 1.61457,3e-5 2.99478,0.31904 4.14063,0.95703 1.15884,0.62502 2.11587,1.58857 2.87109,2.89063 m -12.24609,7.63672 c -1e-5,2.64324 0.54036,4.72006 1.62109,6.23047 1.09374,1.4974 2.59114,2.24609 4.49219,2.24609 1.90103,0 3.39842,-0.74869 4.49219,-2.24609 1.09373,-1.51041 1.6406,-3.58723 1.64062,-6.23047 -2e-5,-2.64322 -0.54689,-4.71353 -1.64062,-6.21094 -1.09377,-1.5104 -2.59116,-2.26561 -4.49219,-2.26562 -1.90105,1e-5 -3.39845,0.75522 -4.49219,2.26562 -1.08073,1.49741 -1.6211,3.56772 -1.62109,6.21094"
         id="path5155"
         inkscape:connector-curvature="0" />
    </g>
    <g
       transform="matrix(0.78553587,0,0,0.78553587,-183.82261,56.403948)"
       style="font-size:40px;font-style:normal;font-weight:normal;line-height:125%;letter-spacing:0px;word-spacing:0px;fill:#000000;fill-opacity:1;stroke:none;font-family:Sans"
       id="flowRoot4648-1-9">
      <path
         d="m 436.21094,296.59262 c -2.90366,10e-6 -4.91538,0.33204 -6.03516,0.9961 -1.1198,0.66407 -1.67969,1.79688 -1.67969,3.39843 0,1.27605 0.41666,2.29167 1.25,3.04688 0.84635,0.74219 1.99218,1.11328 3.4375,1.11328 1.99218,0 3.58723,-0.70312 4.78516,-2.10937 1.21092,-1.41927 1.81639,-3.30078 1.81641,-5.64454 l 0,-0.80078 -3.57422,0 m 7.16797,-1.48437 0,12.48047 -3.59375,0 0,-3.32032 c -0.82033,1.32813 -1.84247,2.3112 -3.06641,2.94922 -1.22397,0.625 -2.72137,0.9375 -4.49219,0.9375 -2.23959,0 -4.02344,-0.625 -5.35156,-1.875 -1.31511,-1.26302 -1.97266,-2.94921 -1.97266,-5.05859 0,-2.46093 0.82031,-4.3164 2.46094,-5.56641 1.65364,-1.24998 4.11458,-1.87498 7.38281,-1.875 l 5.03907,0 0,-0.35156 c -2e-5,-1.65363 -0.5469,-2.92967 -1.64063,-3.82812 -1.08074,-0.91144 -2.60418,-1.36717 -4.57031,-1.36719 -1.25001,2e-5 -2.46746,0.14976 -3.65235,0.44922 -1.1849,0.29949 -2.32422,0.74871 -3.41796,1.34765 l 0,-3.32031 c 1.3151,-0.50779 2.59114,-0.88539 3.82812,-1.13281 1.23697,-0.2604 2.4414,-0.3906 3.61328,-0.39063 3.16405,3e-5 5.52733,0.82034 7.08985,2.46094 1.56248,1.64064 2.34373,4.12762 2.34375,7.46094"
         id="path5152"
         inkscape:connector-curvature="0" />
    </g>
    <g
       transform="matrix(0.78553587,0,0,0.78553587,-145.52773,123.87586)"
       style="font-size:40px;font-style:normal;font-weight:normal;line-height:125%;letter-spacing:0px;word-spacing:0px;fill:#000000;fill-opacity:1;stroke:none;font-family:Sans"
       id="flowRoot4648-1-8">
      <path
         d="m 444.98047,295.75278 0,1.75781 -16.52344,0 c 0.15625,2.47397 0.89843,4.36199 2.22656,5.66406 1.34114,1.28907 3.20312,1.9336 5.58594,1.9336 1.38019,0 2.71483,-0.16927 4.00391,-0.50781 1.30206,-0.33854 2.59112,-0.84636 3.86718,-1.52344 l 0,3.39844 c -1.28908,0.54687 -2.61069,0.96354 -3.96484,1.25 -1.35418,0.28645 -2.72788,0.42968 -4.12109,0.42968 -3.4896,0 -6.25652,-1.01562 -8.30078,-3.04687 -2.03126,-2.03125 -3.04688,-4.77864 -3.04688,-8.24219 0,-3.58071 0.96354,-6.41925 2.89063,-8.51562 1.94009,-2.10936 4.55077,-3.16404 7.83203,-3.16407 2.94269,3e-5 5.26691,0.95054 6.97265,2.85157 1.71873,1.88803 2.57811,4.45965 2.57813,7.71484 m -3.59375,-1.05469 c -0.0261,-1.96613 -0.57945,-3.53514 -1.66016,-4.70703 -1.06772,-1.17186 -2.48699,-1.75779 -4.25781,-1.75781 -2.00522,2e-5 -3.61329,0.56642 -4.82422,1.69922 -1.19792,1.13283 -1.88803,2.72788 -2.07031,4.78515 l 12.8125,-0.0195"
         id="path5149"
         inkscape:connector-curvature="0" />
    </g>
    <g
       transform="matrix(0.78553587,0,0,0.78553587,-78.967593,164.90608)"
       style="font-size:40px;font-style:normal;font-weight:normal;line-height:125%;letter-spacing:0px;word-spacing:0px;fill:#000000;fill-opacity:1;stroke:none;font-family:Sans"
       id="flowRoot4648-1-4">
      <path
         d="m 438.94531,289.07309 c -0.40366,-0.23435 -0.84637,-0.40363 -1.32812,-0.50781 -0.46877,-0.11717 -0.9896,-0.17576 -1.5625,-0.17578 -2.03126,2e-5 -3.59376,0.66408 -4.6875,1.99219 -1.08074,1.31512 -1.6211,3.20964 -1.6211,5.68359 l 0,11.52344 -3.61328,0 0,-21.875 3.61328,0 0,3.39843 c 0.7552,-1.3281 1.73828,-2.31117 2.94922,-2.94921 1.21093,-0.65102 2.68228,-0.97654 4.41406,-0.97657 0.24739,3e-5 0.52082,0.0196 0.82032,0.0586 0.29946,0.0261 0.63149,0.0716 0.99609,0.13672 l 0.0195,3.6914"
         id="path5146"
         inkscape:connector-curvature="0" />
    </g>
    <g
       transform="matrix(0.78553587,0,0,0.78553587,-0.55428078,166.72966)"
       style="font-size:40px;font-style:normal;font-weight:normal;line-height:125%;letter-spacing:0px;word-spacing:0px;fill:#000000;fill-opacity:1;stroke:none;font-family:Sans"
       id="flowRoot4648-1-43">
      <path
         d="m 430.13672,302.62778 3.96484,0 0,4.96094 -3.96484,0 0,-4.96094 m 3.84765,-2.87109 -3.73046,0 0,-3.00782 c -1e-5,-1.31509 0.18228,-2.39582 0.54687,-3.24218 0.36458,-0.84634 1.1328,-1.82942 2.30469,-2.94922 l 1.75781,-1.73828 c 0.74218,-0.69009 1.27603,-1.34113 1.60156,-1.95313 0.33853,-0.61196 0.5078,-1.23696 0.50782,-1.875 -2e-5,-1.15883 -0.42971,-2.09633 -1.28907,-2.8125 -0.84636,-0.71612 -1.97266,-1.07419 -3.3789,-1.07422 -1.02866,3e-5 -2.12892,0.22789 -3.30078,0.6836 -1.15886,0.45575 -2.3698,1.11981 -3.63282,1.99218 l 0,-3.67187 c 1.22396,-0.74216 2.46094,-1.29555 3.71094,-1.66016 1.26301,-0.36455 2.5651,-0.54684 3.90625,-0.54687 2.39582,3e-5 4.31639,0.63154 5.76172,1.89453 1.45832,1.26305 2.18748,2.92971 2.1875,5 -2e-5,0.9896 -0.23439,1.93361 -0.70313,2.83203 -0.46876,0.88543 -1.28907,1.88804 -2.46093,3.00781 l -1.71875,1.67969 c -0.61199,0.61199 -1.04819,1.09376 -1.3086,1.44531 -0.2474,0.33856 -0.42319,0.67059 -0.52734,0.9961 -0.0781,0.27345 -0.13673,0.60548 -0.17578,0.99609 -0.0391,0.39064 -0.0586,0.92449 -0.0586,1.60156 l 0,2.40235"
         id="path5143"
         inkscape:connector-curvature="0" />
    </g>
    <g
       transform="matrix(0.78553587,0,0,0.78553587,65.094078,130.25834)"
       style="font-size:40px;font-style:normal;font-weight:normal;line-height:125%;letter-spacing:0px;word-spacing:0px;fill:#000000;fill-opacity:1;stroke:none;font-family:Sans"
       id="flowRoot4648-1-7">
      <path
         d="m 430.13672,302.62778 3.96484,0 0,4.96094 -3.96484,0 0,-4.96094 m 3.84765,-2.87109 -3.73046,0 0,-3.00782 c -1e-5,-1.31509 0.18228,-2.39582 0.54687,-3.24218 0.36458,-0.84634 1.1328,-1.82942 2.30469,-2.94922 l 1.75781,-1.73828 c 0.74218,-0.69009 1.27603,-1.34113 1.60156,-1.95313 0.33853,-0.61196 0.5078,-1.23696 0.50782,-1.875 -2e-5,-1.15883 -0.42971,-2.09633 -1.28907,-2.8125 -0.84636,-0.71612 -1.97266,-1.07419 -3.3789,-1.07422 -1.02866,3e-5 -2.12892,0.22789 -3.30078,0.6836 -1.15886,0.45575 -2.3698,1.11981 -3.63282,1.99218 l 0,-3.67187 c 1.22396,-0.74216 2.46094,-1.29555 3.71094,-1.66016 1.26301,-0.36455 2.5651,-0.54684 3.90625,-0.54687 2.39582,3e-5 4.31639,0.63154 5.76172,1.89453 1.45832,1.26305 2.18748,2.92971 2.1875,5 -2e-5,0.9896 -0.23439,1.93361 -0.70313,2.83203 -0.46876,0.88543 -1.28907,1.88804 -2.46093,3.00781 l -1.71875,1.67969 c -0.61199,0.61199 -1.04819,1.09376 -1.3086,1.44531 -0.2474,0.33856 -0.42319,0.67059 -0.52734,0.9961 -0.0781,0.27345 -0.13673,0.60548 -0.17578,0.99609 -0.0391,0.39064 -0.0586,0.92449 -0.0586,1.60156 l 0,2.40235"
         id="path5140"
         inkscape:connector-curvature="0" />
    </g>
    <g
       transform="matrix(0.78553587,0,0,0.78553587,-146.57102,-83.956896)"
       style="font-size:40px;font-style:normal;font-weight:normal;line-height:125%;letter-spacing:0px;word-spacing:0px;fill:#000000;fill-opacity:1;stroke:none;font-family:Sans"
       id="flowRoot4648-1-6-8">
      <path
         d="m 429.66797,278.42856 0,10.83984 -3.32031,0 0,-10.83984 3.32031,0"
         id="path5135"
         inkscape:connector-curvature="0" />
      <path
         d="m 453.41797,278.42856 0,10.83984 -3.32031,0 0,-10.83984 3.32031,0"
         id="path5137"
         inkscape:connector-curvature="0" />
    </g>
  </g>
</svg>
